<?xml version="1.0" encoding="utf-8"?>
<!-- Generator: Adobe Illustrator 15.0.0, SVG Export Plug-In . SVG Version: 6.00 Build 0)  -->
<!DOCTYPE svg PUBLIC "-//W3C//DTD SVG 1.1//EN" "http://www.w3.org/Graphics/SVG/1.1/DTD/svg11.dtd">
<svg version="1.1" id="Layer_1" xmlns="http://www.w3.org/2000/svg" xmlns:xlink="http://www.w3.org/1999/xlink" x="0px" y="0px"
	 width="400px" height="200px" viewBox="0 0 400 200" enable-background="new 0 0 400 200" xml:space="preserve">
<g>
	<path fill="#FFFFFF" d="M50.077,91.718c-4.452,1.803-8.989,2.706-13.609,2.706c-4.171,0-8.271-0.719-12.299-2.157
		c-4.029-1.437-7.636-3.592-10.82-6.466c-3.185-2.873-5.762-6.508-7.735-10.904c-1.973-4.395-2.958-9.552-2.958-15.469
		c0-5.917,0.986-11.059,2.958-15.427c1.973-4.366,4.55-8.001,7.735-10.904c3.184-2.901,6.791-5.057,10.82-6.467
		c4.028-1.408,8.128-2.113,12.299-2.113c0.958,0,1.775,0.338,2.451,1.014c0.676,0.677,1.015,1.494,1.015,2.452
		c0,0.959-0.338,1.775-1.015,2.452c-0.676,0.677-1.494,1.014-2.451,1.014c-3.381,0-6.678,0.55-9.89,1.648
		c-3.213,1.099-6.074,2.804-8.581,5.114c-2.508,2.312-4.537,5.228-6.086,8.749c-1.55,3.522-2.324,7.679-2.324,12.468
		c0,4.848,0.774,9.032,2.324,12.553c1.55,3.522,3.593,6.424,6.129,8.707c2.535,2.282,5.409,3.988,8.621,5.114
		c3.213,1.128,6.48,1.691,9.806,1.691c1.859,0,3.705-0.17,5.537-0.508c1.831-0.337,3.621-0.873,5.368-1.605
		c0.393-0.17,0.845-0.254,1.352-0.254c0.958,0,1.775,0.338,2.451,1.015c0.676,0.676,1.015,1.494,1.015,2.452
		C52.19,90.112,51.485,91.156,50.077,91.718z"/>
	<path fill="#FFFFFF" d="M61.404,69.994V27.897c0-0.958,0.338-1.775,1.015-2.451c0.676-0.676,1.492-1.014,2.452-1.014
		c0.957,0,1.775,0.338,2.451,1.014s1.015,1.494,1.015,2.451v42.097c0,2.987,0.478,5.579,1.437,7.776
		c0.958,2.198,2.211,4.015,3.762,5.453c1.549,1.437,3.31,2.493,5.283,3.168c1.972,0.677,4.001,1.015,6.086,1.015
		c0.957,0,1.775,0.339,2.451,1.015c0.676,0.677,1.015,1.494,1.015,2.451c0,0.958-0.338,1.775-1.015,2.451s-1.494,1.015-2.451,1.015
		c-2.875,0-5.721-0.494-8.538-1.479c-2.819-0.986-5.326-2.494-7.523-4.523s-3.988-4.565-5.368-7.607
		C62.093,77.686,61.404,74.109,61.404,69.994z"/>
	<path fill="#FFFFFF" d="M95.892,48.776c0-4.113,0.676-7.692,2.029-10.735c1.352-3.042,3.141-5.564,5.368-7.565
		c2.225-2,4.747-3.494,7.565-4.48c2.817-0.985,5.664-1.479,8.538-1.479c1.746,0,3.479,0.169,5.198,0.507
		c1.719,0.338,3.395,0.902,5.03,1.69c1.352,0.621,2.029,1.663,2.029,3.127c0,0.958-0.338,1.775-1.014,2.452
		c-0.676,0.676-1.494,1.014-2.452,1.014c-0.452,0-0.93-0.112-1.437-0.338c-2.312-1.015-4.763-1.522-7.354-1.522
		c-2.143,0-4.199,0.338-6.171,1.015c-1.973,0.676-3.734,1.72-5.283,3.127c-1.55,1.409-2.789,3.212-3.719,5.41
		c-0.93,2.198-1.395,4.791-1.395,7.776v3.635c0,0.958,0.337,1.775,1.014,2.452c0.677,0.676,1.493,1.014,2.452,1.014h13.187
		c0.958,0,1.775,0.338,2.452,1.015c0.676,0.676,1.014,1.494,1.014,2.452c0,0.959-0.338,1.775-1.014,2.451s-1.494,1.015-2.452,1.015
		h-13.187c-0.959,0-1.774,0.338-2.452,1.014c-0.676,0.676-1.014,1.494-1.014,2.451v3.804c0,3.043,0.465,5.65,1.395,7.819
		c0.93,2.169,2.169,3.973,3.719,5.409c1.549,1.438,3.31,2.494,5.283,3.17c1.972,0.676,4.028,1.015,6.171,1.015
		c2.536,0,4.958-0.508,7.27-1.522c0.507-0.224,1.015-0.338,1.521-0.338c0.958,0,1.775,0.338,2.452,1.015
		c0.676,0.675,1.014,1.493,1.014,2.452c0,0.732-0.198,1.381-0.592,1.943c-0.395,0.564-0.902,0.987-1.521,1.268
		c-3.043,1.408-6.424,2.114-10.144,2.114c-2.874,0-5.721-0.494-8.538-1.48c-2.819-0.985-5.325-2.494-7.524-4.522
		c-2.198-2.03-3.987-4.564-5.367-7.608c-1.381-3.043-2.071-6.621-2.071-10.735V48.776z"/>
	<path fill="#FFFFFF" d="M147.793,89.267c0,0.959-0.338,1.775-1.015,2.451c-0.677,0.676-1.494,1.015-2.451,1.015
		c-0.959,0-1.776-0.338-2.452-1.015c-0.676-0.676-1.015-1.492-1.015-2.451V48.776c0-4.113,0.689-7.692,2.071-10.735
		c1.38-3.042,3.169-5.579,5.367-7.607c2.198-2.029,4.705-3.536,7.524-4.522c2.816-0.985,5.663-1.479,8.538-1.479
		c2.874,0,5.719,0.494,8.538,1.479c2.817,0.986,5.338,2.494,7.565,4.522c2.226,2.029,4.016,4.565,5.369,7.607
		c1.352,3.043,2.028,6.623,2.028,10.735v40.491c0,0.959-0.338,1.775-1.015,2.451c-0.675,0.676-1.494,1.015-2.451,1.015
		c-0.959,0-1.775-0.338-2.451-1.015c-0.676-0.676-1.015-1.492-1.015-2.451V64.753c0-0.563-0.198-1.042-0.592-1.437
		c-0.395-0.394-0.902-0.592-1.521-0.592h-28.995c-0.563,0-1.043,0.198-1.437,0.592c-0.395,0.395-0.591,0.874-0.591,1.437V89.267z
		 M180.929,48.861c0-3.042-0.465-5.663-1.395-7.861c-0.93-2.198-2.17-4.015-3.72-5.452c-1.55-1.438-3.325-2.494-5.325-3.17
		c-2-0.676-4.043-1.014-6.128-1.014c-2.143,0-4.199,0.338-6.171,1.014c-1.974,0.677-3.734,1.733-5.283,3.17
		c-1.551,1.437-2.789,3.241-3.719,5.41c-0.93,2.17-1.395,4.776-1.395,7.819v4.903c0,0.621,0.196,1.128,0.591,1.522
		c0.394,0.395,0.873,0.592,1.437,0.592h28.995c1.408,0,2.113-0.704,2.113-2.114V48.861z"/>
	<path fill="#FFFFFF" d="M207.811,89.267c0,0.959-0.34,1.775-1.016,2.451c-0.677,0.676-1.493,1.015-2.452,1.015
		c-0.958,0-1.774-0.338-2.45-1.015c-0.677-0.676-1.015-1.492-1.015-2.451V48.776c0-4.113,0.69-7.692,2.072-10.735
		c1.38-3.042,3.169-5.579,5.368-7.607c2.196-2.029,4.704-3.536,7.523-4.522c2.815-0.985,5.663-1.479,8.537-1.479
		c2.873,0,5.719,0.494,8.537,1.479c2.818,0.986,5.339,2.48,7.565,4.48c2.226,2.001,4.016,4.522,5.368,7.566
		c1.352,3.043,2.028,6.622,2.028,10.735v40.575c0,0.959-0.338,1.775-1.014,2.451c-0.677,0.676-1.495,1.015-2.451,1.015
		c-0.96,0-1.776-0.338-2.451-1.015c-0.677-0.676-1.016-1.492-1.016-2.451V48.861c0-3.042-0.465-5.663-1.395-7.861
		c-0.93-2.198-2.169-4.015-3.72-5.452c-1.55-1.438-3.325-2.494-5.325-3.17c-2-0.676-4.044-1.014-6.128-1.014
		c-2.143,0-4.199,0.338-6.171,1.014c-1.975,0.677-3.734,1.72-5.283,3.128c-1.551,1.41-2.789,3.212-3.72,5.41
		c-0.93,2.198-1.394,4.791-1.394,7.776V89.267z"/>
	<path fill="#FFFFFF" d="M50.077,193.156c-4.452,1.803-8.989,2.705-13.609,2.705c-4.171,0-8.271-0.719-12.299-2.156
		c-4.029-1.437-7.636-3.592-10.82-6.467c-3.185-2.874-5.762-6.509-7.735-10.905c-1.973-4.395-2.958-9.552-2.958-15.468
		c0-5.917,0.986-11.06,2.958-15.427s4.55-8.002,7.735-10.904c3.184-2.902,6.791-5.058,10.82-6.467
		c4.028-1.408,8.128-2.113,12.299-2.113c0.958,0,1.775,0.338,2.451,1.014c0.676,0.677,1.015,1.494,1.015,2.451
		c0,0.96-0.338,1.776-1.015,2.451c-0.676,0.677-1.494,1.015-2.451,1.015c-3.381,0-6.678,0.549-9.89,1.649
		c-3.213,1.099-6.074,2.805-8.581,5.112c-2.508,2.312-4.537,5.229-6.086,8.75c-1.55,3.523-2.324,7.68-2.324,12.469
		c0,4.847,0.774,9.032,2.324,12.553c1.55,3.522,3.593,6.424,6.129,8.707c2.535,2.282,5.409,3.987,8.621,5.113
		c3.213,1.128,6.48,1.691,9.806,1.691c1.859,0,3.705-0.17,5.537-0.508c1.831-0.337,3.621-0.873,5.368-1.605
		c0.393-0.17,0.845-0.255,1.352-0.255c0.958,0,1.775,0.338,2.451,1.016c0.676,0.677,1.015,1.493,1.015,2.45
		C52.19,191.549,51.485,192.594,50.077,193.156z"/>
	<path fill="#FFFFFF" d="M93.78,195.861c-4.171,0-8.271-0.706-12.299-2.114c-4.03-1.408-7.638-3.563-10.82-6.466
		c-3.185-2.902-5.763-6.536-7.735-10.904c-1.973-4.366-2.958-9.51-2.958-15.427c0-5.918,0.973-11.073,2.917-15.47
		c1.944-4.396,4.507-8.044,7.692-10.946c3.184-2.902,6.805-5.058,10.862-6.467c4.058-1.408,8.171-2.113,12.342-2.113
		c4.169,0,8.269,0.705,12.299,2.113c4.028,1.409,7.635,3.564,10.82,6.467c3.183,2.902,5.748,6.551,7.692,10.946
		c1.945,4.396,2.917,9.552,2.917,15.47c0,5.917-0.987,11.061-2.958,15.427c-1.973,4.368-4.537,8.002-7.693,10.904
		s-6.762,5.058-10.819,6.466C101.979,195.155,97.892,195.861,93.78,195.861z M66.899,160.95c0,4.789,0.774,8.947,2.325,12.468
		c1.549,3.522,3.577,6.424,6.086,8.707c2.507,2.282,5.367,3.987,8.579,5.113c3.213,1.128,6.51,1.691,9.891,1.691
		c3.324,0,6.593-0.563,9.806-1.691c3.211-1.126,6.071-2.831,8.579-5.113c2.507-2.283,4.536-5.185,6.086-8.707
		c1.549-3.521,2.324-7.679,2.324-12.468c0-4.79-0.761-8.961-2.282-12.512c-1.521-3.549-3.537-6.467-6.043-8.748
		c-2.508-2.282-5.368-3.986-8.58-5.114c-3.212-1.127-6.509-1.691-9.89-1.691c-3.381,0-6.678,0.564-9.891,1.691
		c-3.212,1.128-6.085,2.832-8.622,5.114c-2.536,2.281-4.565,5.199-6.086,8.748C67.66,151.989,66.899,156.16,66.899,160.95z"/>
	<path fill="#FFFFFF" d="M146.019,190.704c0,0.96-0.338,1.775-1.015,2.452c-0.676,0.676-1.494,1.014-2.451,1.014
		c-0.959,0-1.776-0.338-2.452-1.014c-0.676-0.677-1.015-1.492-1.015-2.452v-40.49c0-4.113,0.689-7.691,2.071-10.734
		c1.38-3.044,3.17-5.58,5.368-7.609c2.198-2.028,4.705-3.534,7.523-4.521c2.817-0.985,5.663-1.479,8.538-1.479
		c2.874,0,5.719,0.494,8.537,1.479c2.817,0.987,5.339,2.479,7.566,4.48c2.225,2.001,4.015,4.522,5.368,7.564
		c1.353,3.043,2.029,6.623,2.029,10.736v40.574c0,0.96-0.338,1.775-1.015,2.452c-0.676,0.676-1.494,1.014-2.451,1.014
		c-0.959,0-1.775-0.338-2.452-1.014c-0.676-0.677-1.015-1.492-1.015-2.452v-40.405c0-3.043-0.464-5.664-1.394-7.862
		c-0.93-2.196-2.17-4.015-3.72-5.451c-1.55-1.437-3.325-2.494-5.325-3.17c-2.001-0.677-4.044-1.015-6.128-1.015
		c-2.143,0-4.2,0.338-6.171,1.015c-1.974,0.676-3.734,1.72-5.283,3.127c-1.551,1.409-2.79,3.213-3.719,5.411
		c-0.93,2.197-1.395,4.789-1.395,7.776V190.704z"/>
	<path fill="#FFFFFF" d="M217.53,190.704c0,0.96-0.337,1.775-1.014,2.452c-0.676,0.676-1.495,1.014-2.45,1.014
		c-0.96,0-1.776-0.338-2.452-1.014c-0.676-0.677-1.016-1.492-1.016-2.452v-54.015c0-0.789-0.296-1.479-0.888-2.07
		c-0.591-0.592-1.281-0.89-2.07-0.89h-10.905c-0.958,0-1.775-0.337-2.452-1.013c-0.676-0.677-1.013-1.493-1.013-2.451
		c0-0.959,0.337-1.776,1.013-2.451c0.677-0.677,1.493-1.015,2.452-1.015h34.659c0.958,0,1.774,0.338,2.451,1.015
		c0.677,0.675,1.014,1.492,1.014,2.451c0,0.958-0.337,1.774-1.014,2.451c-0.677,0.676-1.493,1.013-2.451,1.013h-10.905
		c-0.789,0-1.479,0.298-2.071,0.89c-0.592,0.591-0.888,1.281-0.888,2.07V190.704z"/>
	<path fill="#FFFFFF" d="M248.977,190.704c0,0.96-0.338,1.775-1.015,2.452c-0.677,0.676-1.494,1.014-2.452,1.014
		s-1.773-0.338-2.451-1.014c-0.677-0.677-1.015-1.492-1.015-2.452v-40.49c0-4.113,0.689-7.691,2.072-10.734
		c1.379-3.044,3.169-5.58,5.367-7.609c2.197-2.028,4.704-3.534,7.523-4.521c2.816-0.985,5.662-1.479,8.538-1.479
		c2.873,0,5.719,0.494,8.537,1.479c2.816,0.987,5.338,2.493,7.564,4.521c2.227,2.029,4.016,4.565,5.368,7.609
		c1.353,3.043,2.029,6.621,2.029,10.734v40.49c0,0.96-0.338,1.775-1.015,2.452c-0.676,0.676-1.494,1.014-2.451,1.014
		c-0.96,0-1.775-0.338-2.451-1.014c-0.677-0.677-1.015-1.492-1.015-2.452V166.19c0-0.563-0.198-1.042-0.592-1.437
		c-0.395-0.395-0.902-0.592-1.521-0.592h-28.994c-0.565,0-1.043,0.197-1.438,0.592s-0.591,0.874-0.591,1.437V190.704z
		 M282.112,150.299c0-3.043-0.466-5.664-1.395-7.862c-0.931-2.196-2.171-4.015-3.72-5.451c-1.551-1.437-3.326-2.494-5.326-3.17
		c-2-0.677-4.043-1.015-6.127-1.015c-2.143,0-4.199,0.338-6.171,1.015c-1.975,0.676-3.735,1.733-5.283,3.17
		c-1.551,1.437-2.79,3.241-3.72,5.41s-1.395,4.774-1.395,7.818v4.903c0,0.621,0.196,1.128,0.591,1.521
		c0.395,0.395,0.872,0.591,1.438,0.591h28.994c1.407,0,2.113-0.703,2.113-2.112V150.299z"/>
	<path fill="#FFFFFF" d="M348.298,193.156c-4.451,1.803-8.988,2.705-13.609,2.705c-4.171,0-8.271-0.719-12.299-2.156
		c-4.029-1.437-7.637-3.592-10.819-6.467c-3.185-2.874-5.762-6.509-7.734-10.905c-1.975-4.395-2.959-9.552-2.959-15.468
		c0-5.917,0.984-11.06,2.959-15.427c1.973-4.367,4.55-8.002,7.734-10.904c3.183-2.902,6.79-5.058,10.819-6.467
		c4.028-1.408,8.128-2.113,12.299-2.113c0.959,0,1.775,0.338,2.452,1.014c0.677,0.677,1.015,1.494,1.015,2.451
		c0,0.96-0.338,1.776-1.015,2.451c-0.677,0.677-1.493,1.015-2.452,1.015c-3.381,0-6.677,0.549-9.89,1.649
		c-3.212,1.099-6.072,2.805-8.58,5.112c-2.508,2.312-4.536,5.229-6.086,8.75c-1.551,3.523-2.325,7.68-2.325,12.469
		c0,4.847,0.774,9.032,2.325,12.553c1.55,3.522,3.593,6.424,6.129,8.707c2.535,2.282,5.41,3.987,8.623,5.113
		c3.212,1.128,6.479,1.691,9.804,1.691c1.86,0,3.706-0.17,5.537-0.508c1.831-0.337,3.621-0.873,5.368-1.605
		c0.394-0.17,0.845-0.255,1.352-0.255c0.959,0,1.776,0.338,2.451,1.016c0.677,0.677,1.016,1.493,1.016,2.45
		C350.412,191.549,349.707,192.594,348.298,193.156z"/>
	<path fill="#FFFFFF" d="M378.054,190.704c0,0.96-0.338,1.775-1.015,2.452c-0.676,0.676-1.493,1.014-2.451,1.014
		s-1.774-0.338-2.451-1.014c-0.676-0.677-1.014-1.492-1.014-2.452v-54.015c0-0.789-0.297-1.479-0.889-2.07
		c-0.591-0.592-1.282-0.89-2.071-0.89H357.26c-0.959,0-1.775-0.337-2.452-1.013c-0.676-0.677-1.015-1.493-1.015-2.451
		c0-0.959,0.339-1.776,1.015-2.451c0.677-0.677,1.493-1.015,2.452-1.015h34.657c0.958,0,1.774,0.338,2.45,1.015
		c0.677,0.675,1.015,1.492,1.015,2.451c0,0.958-0.338,1.774-1.015,2.451c-0.676,0.676-1.492,1.013-2.45,1.013h-10.904
		c-0.79,0-1.479,0.298-2.071,0.89c-0.591,0.591-0.888,1.281-0.888,2.07V190.704z"/>
</g>
<g>
	<g id="XMLID_5_">
		<path id="XMLID_7_" fill="#DCA531" d="M383.797,98.236c0,0-0.301-0.179-0.868-0.512c-0.141-0.085-0.298-0.178-0.47-0.283
			c-0.087-0.051-0.179-0.104-0.272-0.162c-0.095-0.053-0.198-0.108-0.302-0.166c-0.416-0.228-0.895-0.487-1.431-0.78
			c-0.272-0.139-0.56-0.281-0.863-0.434c-0.302-0.146-0.611-0.319-0.949-0.463c-0.674-0.297-1.384-0.648-2.175-0.951
			c-0.78-0.338-1.634-0.629-2.524-0.952c-0.452-0.143-0.916-0.291-1.39-0.44c-0.237-0.082-0.479-0.146-0.726-0.211
			c-0.245-0.065-0.493-0.135-0.744-0.202c-2.01-0.526-4.221-0.937-6.58-1.169c-2.361-0.227-4.865-0.246-7.44-0.054l-0.48,0.033
			l-0.494,0.044c-0.327,0.031-0.659,0.063-0.993,0.095c-0.662,0.063-1.332,0.127-2.004,0.19c-1.344,0.124-2.705,0.252-4.075,0.38
			c-2.749,0.254-5.548,0.49-8.359,0.656c-2.812,0.155-5.635,0.249-8.421,0.163c-2.786-0.07-5.53-0.327-8.158-0.772
			c-2.631-0.438-5.134-1.119-7.428-1.976c-0.571-0.228-1.135-0.456-1.689-0.676c-0.532-0.247-1.055-0.469-1.575-0.744
			c-0.522-0.254-1.015-0.533-1.503-0.8c-0.241-0.134-0.474-0.284-0.708-0.422c-0.232-0.14-0.465-0.277-0.687-0.426
			c-0.224-0.145-0.443-0.292-0.663-0.432c-0.217-0.147-0.426-0.298-0.633-0.445c-0.422-0.289-0.813-0.598-1.196-0.896
			c-0.38-0.301-0.737-0.61-1.089-0.904c-0.338-0.31-0.677-0.602-0.985-0.899c-1.253-1.188-2.238-2.324-3.004-3.291
			c-0.762-0.967-1.309-1.763-1.676-2.31c-0.356-0.551-0.547-0.847-0.547-0.847s0.218,0.275,0.627,0.791
			c0.197,0.259,0.466,0.563,0.768,0.93c0.15,0.185,0.324,0.372,0.505,0.575c0.181,0.203,0.367,0.423,0.577,0.646
			c0.825,0.896,1.885,1.935,3.176,3.027c1.291,1.089,2.847,2.195,4.639,3.233c0.219,0.134,0.452,0.256,0.686,0.379
			c0.232,0.123,0.464,0.256,0.704,0.374c0.482,0.238,0.975,0.483,1.48,0.702c0.494,0.229,1.038,0.445,1.576,0.669
			c0.537,0.193,1.084,0.389,1.638,0.588c2.245,0.751,4.685,1.314,7.238,1.699c0.644,0.087,1.284,0.198,1.941,0.249
			c0.325,0.032,0.654,0.068,0.986,0.1l0.492,0.047l0.5,0.034c0.331,0.019,0.665,0.039,1,0.059c0.335,0.019,0.672,0.048,1.009,0.054
			c0.677,0.02,1.353,0.048,2.035,0.062c2.729,0.046,5.509-0.049,8.289-0.21c2.782-0.158,5.568-0.382,8.313-0.599
			c0.688-0.056,1.373-0.112,2.056-0.167c0.682-0.049,1.359-0.101,2.034-0.15c0.675-0.05,1.344-0.099,2.009-0.147
			c0.332-0.025,0.663-0.05,0.993-0.075l0.493-0.036l0.505-0.022c2.665-0.158,5.258-0.035,7.678,0.284
			c0.303,0.038,0.606,0.079,0.901,0.118c0.298,0.053,0.593,0.105,0.885,0.157c0.293,0.049,0.582,0.102,0.869,0.151
			c0.286,0.06,0.568,0.129,0.851,0.19c0.277,0.066,0.554,0.13,0.83,0.193c0.275,0.065,0.543,0.148,0.81,0.218
			c0.531,0.149,1.058,0.285,1.563,0.458c0.254,0.082,0.503,0.163,0.75,0.244c0.246,0.078,0.491,0.158,0.729,0.25
			c0.475,0.18,0.938,0.352,1.391,0.523c0.889,0.384,1.734,0.732,2.505,1.124c0.78,0.361,1.483,0.752,2.138,1.106
			c0.327,0.17,0.629,0.367,0.922,0.536c0.292,0.176,0.568,0.343,0.834,0.5c1.04,0.665,1.838,1.205,2.364,1.597
			C383.513,98.031,383.797,98.236,383.797,98.236z"/>
		<path id="XMLID_6_" fill="#DCA531" d="M270.967,10.265c0,0,0.301,0.178,0.869,0.513c0.138,0.084,0.297,0.18,0.471,0.282
			c0.086,0.052,0.177,0.106,0.271,0.164c0.097,0.053,0.197,0.107,0.303,0.164c0.415,0.229,0.895,0.488,1.431,0.782
			c0.273,0.137,0.56,0.281,0.863,0.432c0.302,0.147,0.61,0.319,0.949,0.463c0.672,0.296,1.384,0.647,2.176,0.955
			c0.779,0.335,1.633,0.626,2.524,0.949c0.451,0.144,0.915,0.291,1.39,0.441c0.233,0.08,0.479,0.146,0.725,0.211
			c0.245,0.066,0.492,0.133,0.742,0.201c2.01,0.526,4.224,0.936,6.582,1.168c2.361,0.229,4.865,0.245,7.44,0.055l0.479-0.033
			l0.493-0.045c0.329-0.032,0.66-0.063,0.992-0.095c0.664-0.061,1.333-0.126,2.007-0.189c1.344-0.126,2.704-0.253,4.075-0.381
			c2.749-0.256,5.549-0.489,8.36-0.655c2.809-0.154,5.634-0.25,8.418-0.164c2.786,0.069,5.531,0.327,8.16,0.771
			c2.631,0.438,5.133,1.119,7.428,1.978c0.571,0.228,1.135,0.453,1.689,0.675c0.532,0.245,1.055,0.467,1.575,0.743
			c0.522,0.255,1.015,0.534,1.502,0.803c0.241,0.134,0.474,0.282,0.709,0.421c0.233,0.14,0.465,0.275,0.687,0.425
			c0.224,0.146,0.443,0.291,0.662,0.433c0.218,0.146,0.426,0.297,0.633,0.443c0.423,0.29,0.813,0.598,1.197,0.896
			c0.378,0.301,0.736,0.608,1.086,0.905c0.339,0.31,0.677,0.6,0.987,0.901c1.253,1.187,2.24,2.323,3.003,3.287
			c0.765,0.967,1.31,1.766,1.677,2.312c0.355,0.552,0.547,0.847,0.547,0.847s-0.218-0.276-0.626-0.79
			c-0.196-0.262-0.467-0.564-0.768-0.931c-0.15-0.185-0.323-0.372-0.505-0.577c-0.182-0.2-0.368-0.422-0.577-0.646
			c-0.828-0.896-1.886-1.934-3.176-3.025c-1.293-1.094-2.849-2.197-4.639-3.235c-0.221-0.134-0.452-0.255-0.686-0.382
			c-0.234-0.121-0.464-0.254-0.706-0.373c-0.482-0.236-0.973-0.484-1.479-0.701c-0.496-0.23-1.038-0.446-1.577-0.668
			c-0.538-0.194-1.084-0.391-1.638-0.59c-2.243-0.749-4.682-1.311-7.238-1.698c-0.642-0.087-1.283-0.198-1.94-0.25
			c-0.326-0.031-0.654-0.065-0.983-0.099l-0.495-0.048l-0.5-0.031c-0.333-0.021-0.666-0.042-1.002-0.063
			c-0.334-0.019-0.67-0.047-1.007-0.052c-0.677-0.021-1.354-0.048-2.035-0.063c-2.729-0.045-5.509,0.05-8.29,0.212
			c-2.783,0.154-5.568,0.382-8.314,0.599c-0.688,0.056-1.374,0.111-2.055,0.165c-0.683,0.051-1.36,0.1-2.034,0.15
			c-0.673,0.05-1.344,0.099-2.009,0.149c-0.333,0.024-0.662,0.049-0.992,0.072l-0.495,0.036l-0.504,0.023
			c-2.665,0.158-5.257,0.034-7.678-0.284c-0.303-0.041-0.604-0.08-0.903-0.12c-0.296-0.052-0.59-0.104-0.884-0.154
			c-0.291-0.053-0.581-0.104-0.867-0.154c-0.289-0.058-0.568-0.126-0.851-0.191c-0.276-0.063-0.556-0.128-0.83-0.191
			c-0.274-0.064-0.542-0.146-0.81-0.218c-0.532-0.149-1.059-0.283-1.562-0.458c-0.254-0.08-0.504-0.163-0.752-0.242
			c-0.247-0.08-0.49-0.158-0.729-0.25c-0.476-0.18-0.938-0.354-1.392-0.523c-0.888-0.385-1.736-0.734-2.504-1.123
			c-0.781-0.361-1.484-0.752-2.138-1.106c-0.329-0.172-0.629-0.367-0.922-0.539c-0.293-0.175-0.57-0.34-0.834-0.499
			c-1.04-0.663-1.839-1.205-2.364-1.598C271.25,10.472,270.967,10.265,270.967,10.265z"/>
	</g>
	<path id="XMLID_1_" fill="#FFFFFF" d="M298.628,22.744c-26.672,2.071-41.632-18.693-41.632-18.693s7.269,23.042,20.77,29.083
		c9.222,4.125,26.655,0.559,41.876,0.24l0.57-0.392l1.96-1.705l-1.055,2.076c0,0.001,0,0.001,0,0.001L299.375,58.34
		c-1.966-2.985-2.622-5.089-2.622-5.089c8.009,39.999,32.708,34.576,59.383,32.506c26.673-2.071,41.633,18.693,41.633,18.693
		S390.5,81.41,376.998,75.37c-9.164-4.1-26.439-0.605-41.592-0.247l-0.577,0.396l-1.959,1.705l1.054-2.079l0,0l0,0l21.584-24.803
		c1.873,2.89,2.502,4.909,2.502,4.909C350.001,15.253,325.304,20.675,298.628,22.744z M300.846,60.396l23.497-27.002
		c5.263,0.173,10.099,0.911,14.024,2.727c0.507,0.233,0.999,0.471,1.479,0.714l1.835-1.596l-1.023,2.014
		c0.006,0,0.012,0.004,0.017,0.006l-28.595,32.862c-4.91-2.904-8.337-6.164-10.687-9.041l-1.602,1.393L300.846,60.396z
		 M330.688,75.116c-5.362-0.154-10.299-0.89-14.291-2.733c-0.434-0.201-0.857-0.405-1.271-0.612l-1.926,1.674l1.057-2.077
		l0.027-0.024c-0.002-0.001-0.002-0.002-0.004-0.002l28.584-32.852c4.909,2.931,8.316,6.215,10.643,9.097l1.599-1.392l-1.058,2.077
		l-0.001,0.002l0,0L330.688,75.116z"/>
</g>
</svg>
