<?xml version="1.0" encoding="utf-8"?>
<!-- Generator: Adobe Illustrator 15.0.0, SVG Export Plug-In . SVG Version: 6.00 Build 0)  -->
<!DOCTYPE svg PUBLIC "-//W3C//DTD SVG 1.1//EN" "http://www.w3.org/Graphics/SVG/1.1/DTD/svg11.dtd">
<svg version="1.1" id="Layer_1" xmlns="http://www.w3.org/2000/svg" xmlns:xlink="http://www.w3.org/1999/xlink" x="0px" y="0px"
	 width="200px" height="400px" viewBox="0 0 200 400" enable-background="new 0 0 200 400" xml:space="preserve">
<g>
	<g id="XMLID_1575_">
		<path id="XMLID_1573_" fill="#DCA531" d="M33.548,359.898c0,0,0.223-0.823,0.641-2.365c0.106-0.386,0.225-0.815,0.355-1.285
			c0.065-0.234,0.135-0.487,0.205-0.744c0.062-0.258,0.124-0.532,0.191-0.811c0.265-1.126,0.563-2.41,0.902-3.854
			c0.147-0.73,0.298-1.493,0.458-2.299c0.148-0.803,0.348-1.64,0.468-2.526c0.263-1.768,0.621-3.659,0.826-5.711
			c0.283-2.041,0.416-4.229,0.593-6.521c0.043-1.151,0.087-2.33,0.13-3.54c0.038-0.606,0.031-1.218,0.028-1.834
			c-0.004-0.615-0.004-1.24-0.007-1.874c-0.07-5.042-0.54-10.487-1.523-16.157c-0.991-5.675-2.571-11.555-4.683-17.456l-0.387-1.106
			l-0.426-1.126c-0.288-0.749-0.574-1.502-0.862-2.264c-0.577-1.511-1.159-3.034-1.743-4.567c-1.165-3.07-2.342-6.171-3.529-9.299
			c-2.374-6.27-4.731-12.671-6.937-19.145c-2.18-6.485-4.227-13.033-5.833-19.608c-1.637-6.569-2.808-13.162-3.467-19.604
			c-0.675-6.438-0.701-12.741-0.175-18.665c0.167-1.485,0.33-2.95,0.491-4.391c0.231-1.412,0.411-2.773,0.717-4.171
			c0.259-1.391,0.595-2.72,0.909-4.034c0.156-0.656,0.354-1.296,0.525-1.932c0.179-0.638,0.348-1.271,0.554-1.885
			c0.196-0.616,0.393-1.229,0.583-1.832c0.202-0.601,0.423-1.186,0.632-1.77c0.402-1.174,0.874-2.288,1.321-3.377
			c0.461-1.086,0.951-2.121,1.415-3.133c0.508-0.994,0.971-1.973,1.471-2.893c1.97-3.697,3.991-6.74,5.757-9.156
			c1.768-2.411,3.282-4.207,4.324-5.419c1.063-1.191,1.63-1.827,1.63-1.827s-0.502,0.688-1.445,1.974
			c-0.482,0.629-1.019,1.458-1.683,2.402c-0.334,0.471-0.663,0.998-1.021,1.553c-0.355,0.558-0.752,1.134-1.137,1.768
			c-1.565,2.518-3.312,5.666-5.033,9.394c-1.72,3.727-3.299,8.09-4.573,12.952c-0.171,0.603-0.305,1.228-0.447,1.85
			c-0.135,0.625-0.295,1.254-0.416,1.894c-0.245,1.285-0.507,2.596-0.687,3.917c-0.217,1.307-0.37,2.718-0.547,4.125
			c-0.104,1.384-0.212,2.789-0.32,4.209c-0.306,5.742-0.045,11.82,0.705,18.054c0.21,1.555,0.367,3.132,0.67,4.7
			c0.137,0.784,0.271,1.577,0.409,2.375l0.205,1.183l0.247,1.192c0.169,0.788,0.335,1.586,0.505,2.379
			c0.172,0.798,0.322,1.604,0.532,2.396c0.388,1.6,0.758,3.204,1.167,4.808c1.659,6.419,3.681,12.865,5.858,19.271
			c2.165,6.415,4.493,12.79,6.778,19.076c0.576,1.573,1.147,3.146,1.719,4.701c0.557,1.568,1.112,3.123,1.664,4.67
			c0.551,1.546,1.101,3.078,1.646,4.607c0.273,0.762,0.542,1.52,0.814,2.276l0.405,1.134l0.382,1.167
			c2.088,6.135,3.476,12.284,4.299,18.158c0.102,0.736,0.202,1.467,0.305,2.184c0.07,0.732,0.138,1.459,0.205,2.177
			c0.071,0.717,0.137,1.426,0.204,2.135c0.047,0.705,0.068,1.409,0.102,2.108c0.031,0.691,0.062,1.383,0.092,2.069
			c0.024,0.688,0.005,1.369,0.01,2.038c-0.005,1.342,0.022,2.663-0.059,3.952c-0.028,0.647-0.058,1.284-0.083,1.913
			c-0.025,0.63-0.053,1.255-0.117,1.871c-0.111,1.227-0.219,2.427-0.325,3.597c-0.323,2.33-0.593,4.531-1.007,6.588
			c-0.342,2.06-0.805,3.96-1.21,5.719c-0.187,0.883-0.454,1.711-0.662,2.508c-0.221,0.798-0.428,1.555-0.629,2.277
			c-0.881,2.862-1.631,5.081-2.21,6.565C33.848,359.097,33.548,359.898,33.548,359.898z"/>
		<path id="XMLID_1572_" fill="#DCA531" d="M166.551,38.843c0,0-0.227,0.823-0.643,2.366c-0.105,0.381-0.227,0.811-0.356,1.285
			c-0.064,0.235-0.133,0.482-0.204,0.741c-0.063,0.259-0.123,0.531-0.192,0.813c-0.261,1.121-0.563,2.41-0.903,3.856
			c-0.146,0.726-0.295,1.494-0.452,2.297c-0.15,0.805-0.352,1.639-0.473,2.524c-0.258,1.768-0.622,3.663-0.825,5.714
			c-0.284,2.039-0.414,4.226-0.594,6.523c-0.042,1.149-0.084,2.33-0.133,3.539c-0.031,0.602-0.03,1.214-0.024,1.833
			c0.001,0.616,0.007,1.239,0.008,1.869c0.069,5.045,0.539,10.492,1.522,16.166c0.99,5.675,2.57,11.55,4.683,17.454l0.388,1.102
			l0.428,1.126c0.283,0.751,0.571,1.507,0.862,2.263c0.573,1.514,1.155,3.036,1.738,4.572c1.165,3.068,2.344,6.169,3.531,9.297
			c2.374,6.27,4.731,12.675,6.938,19.147c2.18,6.48,4.226,13.029,5.828,19.606c1.642,6.564,2.811,13.16,3.471,19.6
			c0.674,6.444,0.698,12.744,0.174,18.67c-0.164,1.489-0.329,2.951-0.487,4.396c-0.231,1.4-0.413,2.773-0.723,4.169
			c-0.257,1.387-0.594,2.721-0.908,4.031c-0.155,0.656-0.352,1.294-0.525,1.936c-0.177,0.635-0.348,1.263-0.552,1.879
			c-0.199,0.62-0.394,1.228-0.585,1.83c-0.198,0.602-0.425,1.191-0.63,1.771c-0.402,1.174-0.873,2.287-1.323,3.381
			c-0.456,1.081-0.947,2.117-1.413,3.128c-0.505,0.996-0.971,1.972-1.471,2.893c-1.972,3.699-3.995,6.743-5.756,9.157
			c-1.772,2.415-3.285,4.209-4.328,5.418c-1.063,1.192-1.63,1.831-1.63,1.831s0.505-0.692,1.444-1.977
			c0.487-0.634,1.022-1.453,1.684-2.401c0.334-0.47,0.661-0.997,1.022-1.555c0.354-0.55,0.751-1.13,1.14-1.769
			c1.563-2.516,3.309-5.665,5.032-9.392c1.719-3.73,3.297-8.09,4.572-12.95c0.172-0.606,0.307-1.223,0.447-1.855
			c0.132-0.621,0.298-1.245,0.416-1.892c0.244-1.281,0.505-2.588,0.687-3.917c0.218-1.307,0.371-2.716,0.548-4.12
			c0.105-1.387,0.21-2.796,0.316-4.218c0.307-5.738,0.045-11.81-0.699-18.048c-0.214-1.555-0.368-3.13-0.674-4.696
			c-0.133-0.791-0.271-1.582-0.406-2.373l-0.205-1.19l-0.251-1.189c-0.166-0.793-0.331-1.586-0.5-2.386
			c-0.171-0.793-0.321-1.598-0.532-2.393c-0.387-1.595-0.757-3.202-1.166-4.804c-1.658-6.417-3.683-12.867-5.859-19.271
			c-2.163-6.418-4.496-12.787-6.777-19.08c-0.575-1.574-1.151-3.144-1.719-4.706c-0.558-1.563-1.112-3.118-1.665-4.662
			c-0.553-1.546-1.1-3.084-1.645-4.609c-0.274-0.762-0.544-1.521-0.814-2.277l-0.403-1.135l-0.386-1.166
			c-2.088-6.14-3.474-12.284-4.297-18.161c-0.103-0.734-0.201-1.463-0.304-2.188c-0.068-0.729-0.14-1.451-0.206-2.169
			c-0.07-0.715-0.137-1.43-0.204-2.134c-0.049-0.709-0.07-1.41-0.102-2.11c-0.031-0.694-0.06-1.387-0.088-2.07
			c-0.027-0.684-0.01-1.365-0.014-2.037c0.001-1.342-0.023-2.662,0.057-3.952c0.027-0.645,0.059-1.283,0.086-1.915
			c0.025-0.631,0.053-1.253,0.114-1.87c0.115-1.226,0.221-2.426,0.325-3.598c0.326-2.327,0.597-4.537,1.008-6.584
			c0.341-2.063,0.803-3.963,1.21-5.722c0.188-0.882,0.452-1.71,0.662-2.508c0.222-0.796,0.433-1.555,0.632-2.276
			c0.881-2.863,1.63-5.083,2.211-6.569C166.249,39.639,166.551,38.843,166.551,38.843z"/>
	</g>
	<path id="XMLID_2183_" fill="#23253A" d="M155.221,111.678C133.124,50.566,172.063,2.116,172.063,2.116
		s-49.247,31.917-54.657,67.434c-3.692,24.256,15.925,62.766,26.518,98.201l1.286,1.08l5.261,3.483l-5.547-1.129
		c0,0.002,0,0.005,0.001,0.005l-72.563-34.746c5.72-6.536,10.222-9.429,10.222-9.429c-88.465,44.615-59.801,98.934-37.708,160.05
		c22.097,61.107-16.844,109.562-16.844,109.562s49.247-31.921,54.658-67.434c3.671-24.11-15.682-62.295-26.318-97.537l-1.302-1.099
		l-5.256-3.482l5.546,1.125l0,0c-0.001,0-0.001,0-0.001,0l72.03,34.49c-5.554,6.26-9.876,9.033-9.876,9.033
		C205.98,227.109,177.314,172.792,155.221,111.678z M68.502,141.217l78.411,37.548c3,12.436,4.397,24.235,2.69,34.602
		c-0.223,1.339-0.465,2.642-0.719,3.921l4.924,3.266l-5.376-1.09c-0.001,0.009-0.004,0.026-0.007,0.04l-95.428-45.696
		c3.622-13.377,9.039-23.505,14.255-30.868l-4.297-2.849L68.502,141.217z M53.333,220.602c-3.107-12.657-4.58-24.689-2.84-35.227
		c0.189-1.143,0.394-2.269,0.609-3.376l-5.164-3.424l5.544,1.13l0.074,0.053c0.003-0.009,0.005-0.011,0.005-0.014l95.399,45.683
		c-3.687,13.384-9.171,23.488-14.417,30.794l4.293,2.845l-5.542-1.13l-0.01-0.005l0,0L53.333,220.602z"/>
</g>
</svg>
